<?xml version="1.0" encoding="utf-8"?>
<!-- Generator: Adobe Illustrator 16.0.0, SVG Export Plug-In . SVG Version: 6.00 Build 0)  -->
<!DOCTYPE svg PUBLIC "-//W3C//DTD SVG 1.1//EN" "http://www.w3.org/Graphics/SVG/1.1/DTD/svg11.dtd">
<svg version="1.1" id="Layer_1" xmlns="http://www.w3.org/2000/svg" xmlns:xlink="http://www.w3.org/1999/xlink" x="0px" y="0px"
	 width="350.373px" height="260.422px" viewBox="0 0 350.373 260.422" enable-background="new 0 0 350.373 260.422"
	 xml:space="preserve">
<g>
	<g>
		<path fill="#FFFFFF" d="M4,171.854V45.742c0-7.627,1.396-14.17,4.148-19.448c2.771-5.314,6.261-9.654,10.372-12.896
			c4.139-3.266,8.696-5.67,13.544-7.147C36.965,4.757,41.526,4,45.623,4h70.466c6.791,0,12.956,0.875,18.323,2.601
			c5.374,1.727,10.172,4.057,14.263,6.924c4.084,2.862,7.606,6.208,10.466,9.944c2.889,3.774,5.312,7.779,7.202,11.902
			c1.882,4.115,3.266,8.324,4.111,12.506c0.849,4.204,1.279,8.203,1.279,11.887v14.142c0,6.869-0.856,13.078-2.545,18.455
			c-1.688,5.371-3.996,10.167-6.86,14.252c-2.864,4.086-6.213,7.631-9.956,10.535c-3.768,2.922-7.764,5.339-11.876,7.185
			c-4.122,1.848-8.334,3.214-12.519,4.059c-4.202,0.848-8.202,1.278-11.889,1.278H47.623V102.51h68.546l0.079-0.006
			c4.177-0.333,8.026-1.207,11.441-2.599c3.457-1.408,6.473-3.341,8.963-5.745c2.507-2.418,4.479-5.372,5.859-8.777
			c1.369-3.382,2.063-7.243,2.063-11.477V59.662l-0.01-0.101c-0.415-4.071-1.303-7.876-2.642-11.31
			c-1.368-3.502-3.26-6.542-5.624-9.038c-2.378-2.507-5.285-4.498-8.641-5.919c-3.354-1.417-7.245-2.136-11.567-2.136H45.862
			c-4.684,0-8.345,1.286-10.882,3.822c-2.536,2.537-3.821,6.158-3.821,10.762v126.111H4z"/>
		<path d="M116.089,6c6.583,0,12.542,0.843,17.712,2.505c5.182,1.666,9.8,3.905,13.727,6.658c3.917,2.745,7.29,5.948,10.025,9.521
			c2.799,3.657,5.145,7.533,6.971,11.517c1.819,3.978,3.155,8.04,3.971,12.071c0.822,4.074,1.239,7.94,1.239,11.492v14.142
			c0,6.666-0.825,12.673-2.453,17.854c-1.626,5.176-3.844,9.787-6.591,13.705c-2.749,3.922-5.959,7.321-9.542,10.101
			c-3.644,2.826-7.502,5.161-11.469,6.941c-3.987,1.788-8.057,3.108-12.096,3.923c-4.072,0.822-7.939,1.238-11.494,1.238H49.623
			V104.51h66.466h0.159l0.159-0.013c4.381-0.349,8.431-1.271,12.037-2.74c3.694-1.505,6.923-3.577,9.596-6.158
			c2.71-2.615,4.838-5.799,6.326-9.468c1.465-3.621,2.208-7.734,2.208-12.226V59.764v-0.203l-0.021-0.202
			c-0.433-4.25-1.364-8.232-2.77-11.836c-1.462-3.742-3.492-7-6.037-9.686c-2.567-2.707-5.7-4.854-9.313-6.385
			c-3.601-1.521-7.753-2.293-12.344-2.293H45.862c-5.233,0-9.37,1.483-12.297,4.409c-2.924,2.925-4.406,7.021-4.406,12.175v124.111
			H6V45.742c0-7.302,1.319-13.534,3.922-18.523c2.64-5.063,5.95-9.185,9.837-12.251c3.943-3.11,8.279-5.4,12.889-6.804
			C37.358,6.728,41.724,6,45.623,6H116.089 M116.089,2H45.623c-4.314,0-9.029,0.779-14.142,2.337
			c-5.114,1.558-9.847,4.056-14.2,7.49c-4.355,3.436-7.99,7.95-10.906,13.542C3.458,30.962,2,37.754,2,45.742v128.111h31.159V45.742
			c0-4.074,1.079-7.19,3.235-9.348c2.158-2.157,5.313-3.236,9.468-3.236h70.227c4.074,0,7.67,0.66,10.787,1.978
			c3.115,1.319,5.771,3.137,7.969,5.453c2.195,2.317,3.934,5.114,5.213,8.389c1.277,3.276,2.117,6.872,2.516,10.786v14.142
			c0,3.995-0.639,7.569-1.916,10.726c-1.279,3.156-3.076,5.854-5.395,8.09c-2.316,2.236-5.092,4.014-8.328,5.332
			s-6.852,2.139-10.846,2.457H45.623v31.158h70.466c3.834,0,7.93-0.438,12.285-1.317c4.354-0.879,8.666-2.277,12.941-4.194
			c4.273-1.918,8.369-4.395,12.283-7.43c3.914-3.037,7.371-6.691,10.367-10.967c2.996-4.273,5.373-9.207,7.131-14.801
			c1.756-5.591,2.637-11.942,2.637-19.054V59.764c0-3.835-0.439-7.929-1.318-12.283c-0.881-4.354-2.299-8.668-4.254-12.943
			c-1.959-4.273-4.436-8.369-7.432-12.284c-2.996-3.914-6.631-7.37-10.906-10.366c-4.273-2.996-9.207-5.393-14.799-7.19
			C129.431,2.898,123.121,2,116.089,2L116.089,2z"/>
	</g>
	<g>
		<path fill="#FFFFFF" d="M196.337,171.854V17.7c0-1.88,0.352-3.678,1.045-5.343c0.698-1.677,1.668-3.16,2.882-4.408
			c1.203-1.236,2.652-2.213,4.31-2.904C206.239,4.352,208.078,4,210.039,4h138.334v27.158H223.498v140.695H196.337z"/>
		<path d="M346.373,6v23.158H225.498h-4v4v136.695h-23.161V17.7c0-1.638,0.292-3.134,0.892-4.574c0.609-1.463,1.417-2.7,2.47-3.783
			c1.027-1.056,2.219-1.857,3.646-2.452C206.764,6.3,208.343,6,210.039,6H346.373 M350.373,2H210.039
			c-2.238,0-4.316,0.4-6.232,1.199c-1.918,0.799-3.576,1.917-4.975,3.355c-1.398,1.438-2.496,3.115-3.295,5.033
			c-0.799,1.917-1.199,3.955-1.199,6.112v156.154h31.161V33.158h124.875V2L350.373,2z"/>
	</g>
	<g>
		<path fill="#FFFFFF" d="M237.361,258.422v-28h55.486c5.052,0,7.647-2.398,9.814-4.647c2.62-2.724,2.699-7.191,2.699-11.534
			V103.422h-68v-27h95v138c0,1.795-0.242,44-39.721,44H237.361z"/>
		<path d="M330.361,78.422v25.203v110.797c0,0.106,0.084,10.753-4.749,21.339c-6.259,13.71-17.26,20.661-32.972,20.661h-53.279v-24
			h53.486c5.559,0,8.621-2.527,11.257-5.262c3.134-3.259,3.257-8.169,3.257-12.92V105.422v-4h-3.721h-64.279v-23h65.951H330.361
			 M334.361,74.422h-29.049h-69.951v31h68V214.24c0,4.074-0.063,7.988-2.14,10.146c-2.08,2.158-4.22,4.035-8.374,4.035h-57.486v32
			h57.279c42,0,41.721-46,41.721-46V103.625V74.422L334.361,74.422z"/>
	</g>
</g>
</svg>
